<?xml version="1.0" encoding="UTF-8"?>
<svg id="Layer_1" data-name="Layer 1" xmlns="http://www.w3.org/2000/svg" viewBox="0 0 2797.49 654">
  <defs>
    <style>
      .cls-1 {
        fill: none;
        stroke: red;
        stroke-miterlimit: 10;
      }
    </style>
  </defs>
  <path class="cls-1"
    d="m450.51,206.03v-36.03c0-80.96-90.6-146.59-202.36-146.59S45.79,74.91,45.79,170c0,86.88,66.84,146.59,202.36,146.59,127.94,0,217.51,39.3,217.51,155.18,0,106.4-105.01,155.18-217.51,155.18-120.13,0-217.51-59.21-217.51-155.18v-46.13" />
  <path class="cls-1" d="m572.23,23.41h201.45c89.03,0,161.2,72.17,161.2,161.2s-72.17,161.2-161.2,161.2h-201.45" />
  <line class="cls-1" x1="572.23" y1="626.94" x2="572.23" y2="23.41" />
  <line class="cls-1" x1="1566.92" y1="626.94" x2="1566.92" y2="23.41" />
  <polyline class="cls-1" points="1719.12 626.94 1719.12 23.41 2127.12 626.94 2127.12 23.41" />
  <path class="cls-1" d="m1038.74,23.41h201.45c89.03,0,161.2,72.17,161.2,161.2s-72.17,161.2-161.2,161.2h-201.45" />
  <path class="cls-1" d="m1440.86,626.94c-37.76,0-68.37-30.61-68.37-68.37v-88.91c0-68.41-55.45-123.86-123.86-123.86" />
  <line class="cls-1" x1="1038.74" y1="626.94" x2="1038.74" y2="23.41" />
  <path class="cls-1"
    d="m2746.44,211.2c-39.08-110.16-133.12-187.8-242.91-187.8-144.84,0-262.26,135.11-262.26,301.77s117.42,301.77,262.26,301.77,252.46-124.11,261.66-281.16" />
  <polyline class="cls-1" points="2765.65 626.94 2765.65 345.8 2510.95 345.8" />
</svg>